HIERARCHY
ROOT Hips
{
    OFFSET 0.000000 0.000000 0.000000
    CHANNELS 6 Xposition Yposition Zposition Zrotation Xrotation Yrotation
        JOINT Chest
        {
            OFFSET -0.000000 31.986500 -0.000000
            CHANNELS 3 Zrotation Xrotation Yrotation
            JOINT Neck
            {
                OFFSET -0.000000 24.131615 0.000000
                CHANNELS 3 Zrotation Xrotation Yrotation
                JOINT Head
                {
                    OFFSET -0.000000 10.450000 0.000000
                    CHANNELS 3 Zrotation Xrotation Yrotation
                    End Site
                    {
                        OFFSET -0.000000 16.150003 0.000000
                    }
                }
            }
            JOINT LeftCollar
            {
                OFFSET -0.000000 24.131615 0.000000
                CHANNELS 3 Zrotation Xrotation Yrotation
                JOINT LeftShoulder
                {
                    OFFSET 20.000000 -0.000000 0.000000
                    CHANNELS 3 Zrotation Xrotation Yrotation
                    JOINT LeftElbow
                    {
                        OFFSET 22.686384 0.000000 0.000000
                        CHANNELS 3 Zrotation Xrotation Yrotation
                        JOINT LeftWrist
                        {
                            OFFSET 24.813133 0.000000 0.000000
                            CHANNELS 3 Zrotation Xrotation Yrotation
                            End Site
                            {
                                OFFSET 0.000000 -14.250000 0.000000
                            }
                        }
                    }
                }
            }
            JOINT RightCollar
            {
                OFFSET -0.000000 24.131615 0.000000
                CHANNELS 3 Zrotation Xrotation Yrotation
                JOINT RightShoulder
                {
                    OFFSET -20.000000 0.000000 0.000000
                    CHANNELS 3 Zrotation Xrotation Yrotation
                    JOINT RightElbow
                    {
                        OFFSET -22.686384 0.000000 0.000000
                        CHANNELS 3 Zrotation Xrotation Yrotation
                        JOINT RightWrist
                        {
                            OFFSET -24.813133 0.000000 0.000000
                            CHANNELS 3 Zrotation Xrotation Yrotation
                            End Site
                            {
                                OFFSET -0.000000 -14.250000 0.000000
                            }
                        }
                    }
                }
            }
        }
    JOINT LeftHip
    {
        OFFSET 11.400001 0.000000 0.000000
        CHANNELS 3 Zrotation Xrotation Yrotation
        JOINT LeftKnee
        {
            OFFSET -0.000000 -38.315727 0.000000
            CHANNELS 3 Zrotation Xrotation Yrotation
            JOINT LeftAnkle
            {
                OFFSET -0.000000 -38.060658 0.000000
                CHANNELS 3 Zrotation Xrotation Yrotation
                End Site
                {
                    OFFSET -0.000000 -4.750000 16.150003
                }
            }
        }
    }
    JOINT RightHip
    {
        OFFSET -11.400001 0.000000 0.000000
        CHANNELS 3 Zrotation Xrotation Yrotation
        JOINT RightKnee
        {
            OFFSET -0.000000 -38.315727 0.000000
            CHANNELS 3 Zrotation Xrotation Yrotation
            JOINT RightAnkle
            {
                OFFSET -0.000000 -38.060658 0.000000
                CHANNELS 3 Zrotation Xrotation Yrotation
                End Site
                {
                    OFFSET -0.000000 -4.750000 16.150003
                }
            }
        }
    }
}
MOTION
Frames:    14
Frame Time:    0.010000
-77.924759    83.486290    -51.693214    -5.199046    -8.121683    19.508425    6.081836    4.414574    -26.822393    -13.788929    10.631168    18.867313    -4.318195    -3.569711    17.214958    -12.493103    0.780817    -8.082994    14.735098    4.363626    -113.563942    10.461023    -8.784410    -61.702251    157.568558    -37.870090    -30.972017    20.766224    4.591773    22.492977    34.893703    9.537091    22.221270    -117.228867    -28.156939    10.146103    52.186169    -8.538871    71.635765    10.261869    24.361637    5.318392    -2.894459    14.488658    3.174056    -8.867733    -10.535125    34.383297    10.724707    -13.169559    15.209699    -9.280966    30.861891    14.915961    7.933043    -12.562496    -3.774804    
-77.686012    83.303871    -51.966782    -5.103550    -8.381328    19.373486    6.170115    4.404536    -26.734957    -14.600070    12.682017    18.142958    -4.841493    -5.203250    16.242161    -13.176657    1.008240    -9.759293    13.885314    7.751784    -112.769356    10.719412    -7.426930    -62.977413    158.177094    -35.919518    -31.160690    21.949448    4.495521    20.299303    35.108868    10.235576    20.316622    -117.973358    -23.411003    11.454473    54.752964    -23.993034    80.733711    9.521804    25.228601    5.594636    -2.640086    13.513810    3.964983    -8.610915    -11.168327    34.264965    10.506247    -12.963996    15.017234    -9.469224    30.815821    15.237144    8.064693    -13.049994    -3.797564    
-77.444008    83.116341    -52.254253    -5.021404    -8.584857    19.332275    6.163269    4.575173    -26.701546    -15.152714    13.332198    18.293428    -5.076183    -5.099354    16.287447    -13.531350    1.102515    -9.299495    12.728231    10.678288    -111.900040    10.190888    -6.412184    -64.323593    157.775589    -35.327579    -31.737101    23.121252    4.458559    19.510300    35.418362    11.565584    18.538170    -117.877693    -22.536547    13.209075    56.229500    -30.477808    84.854156    8.736109    26.117744    5.794899    -2.256120    12.282687    4.776705    -8.352448    -11.781362    34.099907    10.278870    -12.823831    14.809402    -9.679164    30.787851    15.561735    8.237205    -13.567257    -3.859865    
-77.202705    82.923973    -52.559628    -4.954060    -8.732770    19.406233    6.221386    4.706402    -26.732296    -15.677119    13.881310    18.466219    -5.243819    -4.545216    16.340830    -13.866792    1.111358    -8.873933    11.328106    13.772750    -110.825806    9.181500    -5.439859    -65.694313    156.888000    -35.337589    -32.602207    24.290268    4.429660    18.547098    35.531517    13.038834    16.904886    -117.236679    -23.446058    15.014834    56.799946    -32.172764    85.821861    7.952555    26.979118    5.881636    -1.773320    10.876921    5.569477    -8.095387    -12.382333    33.910099    10.046824    -12.770842    14.620245    -9.880591    30.815804    15.821113    8.458993    -14.096338    -3.949720    
-76.965424    82.727814    -52.886688    -4.899726    -8.831347    19.611326    6.341088    4.822700    -26.836414    -16.146351    14.315687    18.647583    -5.529301    -3.787007    16.427843    -14.176044    1.095283    -8.487527    9.756993    16.874580    -109.533272    7.853931    -4.410727    -67.029320    155.833664    -35.555229    -33.666561    25.470028    4.374707    17.416325    35.450127    14.712532    15.396132    -116.173851    -25.045483    16.793634    57.038700    -31.473698    85.217171    7.219963    27.773268    5.831510    -1.230185    9.382804    6.310458    -7.844956    -12.981320    33.704540    9.810281    -12.821548    14.485985    -10.037425    30.940321    15.941657    8.738191    -14.618191    -4.049817    
-76.734367    82.529640    -53.238552    -4.851986    -8.892852    19.957781    6.513496    4.956164    -27.016533    -16.540163    14.636857    18.823561    -5.915290    -2.872295    16.541311    -14.461934    1.080502    -8.138140    8.143085    19.849123    -108.078247    6.385091    -3.370683    -68.224419    154.685974    -35.828033    -34.845921    26.659996    4.278847    16.137394    35.208302    16.611206    13.987543    -114.797020    -26.765434    18.484686    57.247066    -29.675602    83.946800    6.580620    28.474257    5.644030    -0.666075    7.883144    6.966225    -7.610730    -13.590964    33.479393    9.563515    -12.982923    14.433643    -10.114620    31.196751    15.858212    9.080762    -15.113603    -4.138177    
-76.510185    82.331963    -53.617584    -4.798734    -8.932861    20.450094    6.724751    5.142693    -27.267527    -16.844328    14.858168    18.982912    -6.378255    -1.865009    16.672113    -14.732409    1.055225    -7.814128    6.632977    22.621893    -106.560272    4.930328    -2.402628    -69.203545    153.478134    -36.057697    -36.063839    27.845850    4.129962    14.743876    34.876347    18.721014    12.643480    -113.218666    -28.314308    20.028229    57.482895    -27.487310    82.459595    6.061655    29.067787    5.346847    -0.115704    6.451884    7.499547    -7.403033    -14.223999    33.218555    9.292634    -13.251656    14.471505    -10.083178    31.609348    15.529863    9.486081    -15.565174    -4.194920    
-76.291809    82.137733    -54.025627    -4.723533    -8.966776    21.086933    6.958816    5.415587    -27.576099    -17.054476    15.004289    19.116335    -6.886753    -0.836619    16.808504    -14.987848    1.033105    -7.500161    5.333401    25.138315    -105.069679    3.564291    -1.522855    -69.955635    152.301453    -36.137138    -37.247025    28.998796    3.923887    13.282069    34.560535    20.977335    11.307628    -111.546844    -29.569752    21.389132    57.720512    -25.287683    80.996132    5.671689    29.547110    4.993214    0.391597    5.150794    7.869617    -7.226064    -14.891285    32.899578    8.977057    -13.615680    14.584261    -9.925854    32.186703    14.950201    9.944497    -15.958689    -4.206924    
-76.076332    81.949905    -54.464115    -4.607894    -9.007243    21.861458    7.201218    5.800761    -27.921984    -17.176744    15.104495    19.217003    -7.405631    0.145512    16.936213    -15.227491    1.000899    -7.181588    4.309750    27.407637    -103.696579    2.350755    -0.774304    -70.462799    151.136871    -36.051952    -38.369888    30.078369    3.666805    11.809163    34.389492    23.267120    9.906281    -109.868423    -30.521294    22.571428    57.928711    -23.256546    79.683823    5.401114    29.910667    4.650143    0.833563    4.027224    8.034169    -7.076659    -15.600346    32.502975    8.592044    -14.056391    14.731906    -9.640757    32.921276    14.155936    10.432462    -16.285069    -4.175268    
-75.860085    81.771103    -54.933243    -4.434200    -9.063675    22.763346    7.442253    6.313123    -28.282242    -17.228254    15.194155    19.280378    -7.899388    1.021886    17.038820    -15.444710    0.971254    -6.850881    3.546722    29.448919    -102.473503    1.275198    -0.111838    -70.744194    150.018082    -35.761871    -39.432301    31.044765    3.368438    10.383999    34.485077    25.455610    8.362598    -108.238914    -31.218567    23.609226    58.090202    -21.445284    78.557686    5.228609    30.161926    4.384197    1.196512    3.113269    7.948514    -6.944920    -16.352638    32.022915    8.115155    -14.548677    14.857054    -9.243979    33.790604    13.216628    10.913332    -16.539795    -4.114848    
-75.640175    81.603691    -55.430943    -4.188362    -9.140836    23.781754    7.676159    6.954690    -28.636780    -17.230833    15.314675    19.304985    -8.341681    1.745040    17.099688    -15.636515    0.944927    -6.508890    2.994131    31.304880    -101.403275    0.316060    0.483315    -70.805168    148.897827    -35.282543    -40.476959    31.867861    3.045447    9.057092    34.938778    27.404577    6.615246    -106.671959    -31.741493    24.565971    58.202435    -19.850136    77.588127    5.129223    30.307962    4.245843    1.475725    2.424887    7.572521    -6.816337    -17.138542    31.471491    7.531651    -15.062749    14.897486    -8.768804    34.760487    12.216965    11.348815    -16.719957    -4.049235    
-75.415382    81.450020    -55.953156    -3.861196    -9.236638    24.905203    7.897458    7.716590    -28.970659    -17.205805    15.506005    19.292812    -8.717333    2.281762    17.106457    -15.803980    0.900575    -6.160848    2.580446    33.040695    -100.461349    -0.546550    1.021978    -70.650627    147.714020    -34.637016    -41.547394    32.533276    2.717232    7.862738    35.784805    29.002853    4.646860    -105.155479    -32.167446    25.502630    58.281742    -18.411688    76.689674    5.077473    30.357000    4.259223    1.674415    1.962062    6.885496    -6.674236    -17.935423    30.875814    6.837081    -15.569108    14.800748    -8.262621    35.791229    11.242424    11.711658    -16.822685    -4.006267    
-75.185730    81.312851    -56.494759    -3.449272    -9.341652    26.118128    8.098517    8.583673    -29.271852    -17.166719    15.795414    19.248186    -9.026233    2.620555    17.054274    -15.942858    0.855464    -5.811471    2.202479    34.678383    -99.579529    -1.383486    1.576840    -70.314133    146.523895    -33.795704    -42.632683    33.041641    2.400035    6.816381    36.991737    30.189756    2.497343    -103.669647    -32.550293    26.454529    58.360699    -17.038265    75.751175    5.046055    30.317829    4.417161    1.803308    1.708865    5.902515    -6.506229    -18.710918    30.271397    6.037222    -16.043819    14.536049    -7.779413    36.844414    10.368791    11.985116    -16.844254    -4.014059    
-74.951912    81.195496    -57.049633    -2.955175    -9.442394    27.397976    8.271472    9.537562    -29.527756    -17.120556    16.196518    19.177746    -9.282030    2.770871    16.945721    -16.053612    0.813801    -5.462603    1.759938    36.242397    -98.685928    -2.233480    2.157485    -69.815056    145.315155    -32.790234    -43.705032    33.404499    2.106832    5.917340    38.472076    30.958179    0.253052    -102.191360    -32.914608    27.432978    58.477692    -15.647736    74.672050    5.006279    30.202969    4.685661    1.878435    1.634560    4.679573    -6.311301    -19.429640    29.693020    5.148368    -16.469364    14.100023    -7.370543    37.887157    9.651970    12.147619    -16.777033    -4.102102    
